<?xml version="1.0" encoding="iso-8859-1"?>
<!-- Generator: Adobe Illustrator 16.0.0, SVG Export Plug-In . SVG Version: 6.00 Build 0)  -->
<!DOCTYPE svg PUBLIC "-//W3C//DTD SVG 1.1//EN" "http://www.w3.org/Graphics/SVG/1.1/DTD/svg11.dtd">
<svg xmlns="http://www.w3.org/2000/svg" xmlns:xlink="http://www.w3.org/1999/xlink" version="1.1" id="Capa_1" x="0px" y="0px" width="20px" height="20px" viewBox="0 0 48.013 48.012" style="enable-background:new 0 0 48.013 48.012;" xml:space="preserve">
<g>
	<g id="Darth_Vader">
		<g>
			<path d="M21.633,17.805c-0.552,0-1-0.448-1-1V5.838c0-0.552,0.448-1,1-1c0.552,0,1,0.448,1,1v10.967     C22.633,17.357,22.185,17.805,21.633,17.805z" fill="red"/>
			<path d="M26.597,17.762c-0.552,0-1-0.448-1-1V5.831c0-0.552,0.448-1,1-1s1,0.448,1,1v10.931     C27.597,17.314,27.148,17.762,26.597,17.762z" fill="red"/>
			<path d="M26.597,6.736c-0.552,0-1-0.448-1-1c0-0.811-0.662-1.472-1.475-1.472c-0.812,0-1.473,0.661-1.473,1.472     c0,0.552-0.448,1-1,1c-0.552,0-1-0.448-1-1c0-1.914,1.558-3.472,3.473-3.472c1.916,0,3.475,1.558,3.475,3.472     C27.597,6.288,27.148,6.736,26.597,6.736z" fill="red"/>
		</g>
		<path d="M38.212,19.109c-0.033,0-0.067-0.001-0.103-0.005c-0.549-0.056-0.949-0.546-0.895-1.096    c0.025-0.246,0.038-0.49,0.038-0.729c0-5.735-4.927-10.974-11.216-11.926c-0.546-0.083-0.921-0.592-0.839-1.139    c0.081-0.547,0.595-0.925,1.139-0.839c7.243,1.097,12.917,7.205,12.917,13.904c0,0.306-0.017,0.616-0.048,0.931    C39.153,18.724,38.719,19.109,38.212,19.109z" fill="red"/>
		<path d="M41.623,42.083c-0.157,0-0.313-0.036-0.458-0.11c-0.315-0.163-0.521-0.479-0.541-0.833    c-0.004-0.083-0.494-8.385-2.744-14.593c-1.168-3.222-3.435-5.19-5.165-5.958c-1.046-0.464-2.032-0.573-2.702-0.298    c-5.249,2.148-7.866,1.181-9.778,0.475c-0.49-0.181-0.914-0.337-1.324-0.421c-2.359-0.482-5.862,0.681-7.988,4.378    c-3.41,5.931-3.574,15.772-3.575,15.872c-0.004,0.355-0.197,0.682-0.506,0.857c-0.31,0.174-0.689,0.174-0.996-0.006l-5.348-3.104    c-0.378-0.22-0.57-0.659-0.473-1.086C3.284,22.87,7.299,18.914,9.039,17.844c-0.012-0.191-0.018-0.379-0.018-0.565    c0-6.663,5.642-12.765,12.843-13.892c0.549-0.085,1.057,0.287,1.143,0.833s-0.288,1.057-0.833,1.143    c-6.254,0.979-11.153,6.213-11.153,11.916c0,0.329,0.024,0.674,0.071,1.025c0.068,0.505-0.254,0.979-0.748,1.104    c-0.008,0.005-4.485,1.684-8.205,17.574l3.279,1.904c0.2-3.204,0.954-10.265,3.771-15.162c2.282-3.967,6.353-6.115,10.123-5.34    c0.559,0.114,1.072,0.304,1.615,0.504c1.781,0.658,3.798,1.403,8.328-0.451c1.188-0.486,2.706-0.371,4.27,0.322    c2.73,1.211,5.062,3.867,6.234,7.104c1.75,4.827,2.469,10.668,2.729,13.488l3.391-2.143c-3.728-15.979-8.021-17.986-8.064-18.005    c-0.494-0.211-0.75-0.783-0.558-1.285c0.193-0.502,0.728-0.77,1.238-0.596c0.547,0.186,5.461,2.333,9.492,20.13    c0.095,0.414-0.083,0.841-0.44,1.066l-5.392,3.407C41.995,42.032,41.809,42.083,41.623,42.083z" fill="red"/>
		<path d="M24.029,45.749c-3.54,0-11.476-2.068-11.812-2.157c-0.258-0.067-0.478-0.235-0.611-0.466    c-0.134-0.229-0.17-0.504-0.101-0.762l0.963-3.582l-2.482-2.265c-0.193-0.176-0.31-0.42-0.325-0.681l-0.246-4.262    c-1.297-2.515-0.862-6.408-0.842-6.576c0.064-0.549,0.562-0.938,1.108-0.877c0.548,0.064,0.941,0.56,0.878,1.108    c-0.116,1.006-0.215,3.967,0.707,5.565c0.078,0.135,0.123,0.286,0.132,0.442l0.235,4.077l2.63,2.399    c0.276,0.252,0.389,0.637,0.292,0.999L13.7,41.905c2.237,0.553,7.737,1.846,10.33,1.846c2.963,0,8.558-1.063,10.804-1.725    l-0.967-3.593c-0.099-0.364,0.018-0.752,0.298-1.004l2.247-2.015L37.19,31.2c0.029-0.155,0.095-0.303,0.191-0.429    c0.045-0.062,1.268-1.79,0.186-4.888c-0.182-0.521,0.094-1.092,0.615-1.274c0.52-0.183,1.092,0.093,1.274,0.615    c1.224,3.505,0.102,5.824-0.335,6.538l-0.805,4.352c-0.04,0.217-0.15,0.416-0.315,0.562l-2.043,1.832l1.047,3.891    c0.125,0.469-0.103,0.958-0.54,1.165C34.889,44.304,27.611,45.749,24.029,45.749z" fill="red"/>
		<g>
			<path d="M15.739,24.954c-0.257,0-0.507-0.131-0.646-0.369l-0.691-1.172c-0.21-0.357-0.092-0.817,0.265-1.027     c0.358-0.21,0.818-0.091,1.027,0.265l0.691,1.173c0.21,0.357,0.092,0.817-0.265,1.027C16,24.921,15.868,24.954,15.739,24.954z" fill="red"/>
			<path d="M17.859,24.368c-0.411,0-0.746-0.331-0.75-0.742l-0.014-1.354c-0.004-0.415,0.328-0.753,0.742-0.758     c0.003,0,0.005,0,0.008,0c0.411,0,0.746,0.331,0.75,0.742l0.014,1.354c0.004,0.415-0.328,0.753-0.742,0.757     C17.864,24.368,17.862,24.368,17.859,24.368z" fill="red"/>
			<path d="M20.025,24.948c-0.125,0-0.251-0.031-0.368-0.098c-0.361-0.203-0.489-0.661-0.285-1.021l0.667-1.184     c0.204-0.361,0.663-0.488,1.021-0.285c0.361,0.203,0.489,0.661,0.285,1.021l-0.667,1.184     C20.541,24.809,20.287,24.948,20.025,24.948z" fill="red"/>
		</g>
		<g>
			<path d="M28.008,24.954c-0.257,0-0.507-0.131-0.647-0.369l-0.688-1.173c-0.21-0.357-0.091-0.817,0.267-1.026     c0.356-0.209,0.816-0.091,1.026,0.267l0.688,1.173c0.21,0.357,0.092,0.817-0.267,1.026     C28.269,24.921,28.138,24.954,28.008,24.954z" fill="red"/>
			<path d="M30.129,24.368c-0.411,0-0.746-0.331-0.75-0.742l-0.014-1.354c-0.005-0.415,0.327-0.753,0.741-0.758     c0.003,0,0.005,0,0.009,0c0.41,0,0.745,0.331,0.75,0.742l0.014,1.354c0.004,0.415-0.328,0.753-0.742,0.757     C30.134,24.368,30.131,24.368,30.129,24.368z" fill="red"/>
			<path d="M32.293,24.948c-0.125,0-0.252-0.031-0.369-0.098c-0.36-0.204-0.488-0.661-0.284-1.022l0.669-1.184     c0.203-0.361,0.661-0.489,1.022-0.284c0.359,0.204,0.487,0.661,0.284,1.022l-0.67,1.184     C32.809,24.809,32.555,24.948,32.293,24.948z" fill="red"/>
		</g>
		<path d="M17.937,30.258c-1.853,0-3.36-1.508-3.36-3.363c0-1.854,1.507-3.36,3.36-3.36c1.854,0,3.362,1.506,3.362,3.36    C21.299,28.75,19.791,30.258,17.937,30.258z M17.937,25.036c-1.026,0-1.86,0.834-1.86,1.859c0,1.027,0.834,1.863,1.86,1.863    c1.027,0,1.862-0.835,1.862-1.863C19.799,25.87,18.963,25.036,17.937,25.036z" fill="red"/>
		<path d="M30.127,30.258c-1.854,0-3.361-1.508-3.361-3.363c0-1.854,1.508-3.36,3.361-3.36s3.361,1.506,3.361,3.36    C33.488,28.75,31.98,30.258,30.127,30.258z M30.127,25.036c-1.026,0-1.861,0.834-1.861,1.859c0,1.027,0.835,1.863,1.861,1.863    s1.861-0.835,1.861-1.863C31.988,25.87,31.153,25.036,30.127,25.036z" fill="red"/>
		<path d="M31.455,40.592H16.62c-0.201,0-0.382-0.121-0.46-0.307c-0.078-0.185-0.038-0.398,0.102-0.543l7.417-7.617    c0.188-0.193,0.528-0.193,0.717,0l7.417,7.617c0.141,0.145,0.181,0.358,0.103,0.543C31.838,40.471,31.655,40.592,31.455,40.592z     M17.805,39.592h12.465l-6.232-6.401L17.805,39.592z" fill="red"/>
		<g>
			<path d="M28.092,40.342c-0.138,0-0.25-0.112-0.25-0.25v-3.247c0-0.138,0.112-0.25,0.25-0.25s0.25,0.112,0.25,0.25v3.247     C28.342,40.23,28.229,40.342,28.092,40.342z" fill="red"/>
			<path d="M24.037,40.342c-0.138,0-0.25-0.112-0.25-0.25v-7.618c0-0.138,0.112-0.25,0.25-0.25c0.138,0,0.25,0.112,0.25,0.25v7.618     C24.287,40.23,24.175,40.342,24.037,40.342z" fill="red"/>
			<path d="M21.924,40.342c-0.138,0-0.25-0.112-0.25-0.25v-5.289c0-0.139,0.112-0.25,0.25-0.25c0.138,0,0.25,0.111,0.25,0.25v5.289     C22.174,40.23,22.062,40.342,21.924,40.342z" fill="red"/>
			<path d="M19.984,40.342c-0.138,0-0.25-0.112-0.25-0.25v-3.305c0-0.139,0.112-0.25,0.25-0.25c0.138,0,0.25,0.111,0.25,0.25v3.305     C20.234,40.23,20.123,40.342,19.984,40.342z" fill="red"/>
			<path d="M26.021,40.342c-0.138,0-0.25-0.112-0.25-0.25v-5.348c0-0.139,0.112-0.25,0.25-0.25c0.139,0,0.25,0.111,0.25,0.25v5.348     C26.271,40.23,26.16,40.342,26.021,40.342z" fill="red"/>
		</g>
		<path d="M24.064,45.077c-0.086,0-0.172-0.022-0.25-0.066l-7.389-4.254c-0.196-0.113-0.292-0.344-0.233-0.562    c0.059-0.218,0.256-0.371,0.483-0.371h14.777c0.227,0,0.424,0.152,0.482,0.371c0.06,0.219-0.037,0.45-0.232,0.562l-7.389,4.254    C24.237,45.055,24.15,45.077,24.064,45.077z M18.546,40.823L24.065,44l5.52-3.178H18.546z" fill="red"/>
		<path d="M6.691,39.418c-0.349,0-0.661-0.244-0.734-0.6c-0.083-0.406,0.178-0.802,0.584-0.886l5.808-1.192    c0.402-0.084,0.802,0.179,0.886,0.584c0.083,0.406-0.178,0.803-0.584,0.887l-5.808,1.191C6.792,39.413,6.742,39.418,6.691,39.418z    " fill="red"/>
		<path d="M41.468,39.493c-0.05,0-0.101-0.006-0.151-0.016l-5.838-1.195c-0.405-0.082-0.667-0.479-0.584-0.885    s0.48-0.666,0.885-0.584l5.839,1.195c0.405,0.083,0.667,0.479,0.584,0.885C42.129,39.247,41.815,39.493,41.468,39.493z" fill="red"/>
		<path d="M15.078,41.407c-0.772,0-1.4-0.629-1.4-1.401c0-0.771,0.628-1.399,1.4-1.399c0.771,0,1.399,0.627,1.399,1.399    C16.478,40.778,15.85,41.407,15.078,41.407z M15.078,39.106c-0.497,0-0.9,0.403-0.9,0.899c0,0.497,0.404,0.901,0.9,0.901    s0.899-0.404,0.899-0.901C15.978,39.51,15.574,39.106,15.078,39.106z" fill="red"/>
		<path d="M33.073,41.407c-0.772,0-1.4-0.629-1.4-1.401c0-0.771,0.628-1.399,1.4-1.399c0.771,0,1.398,0.627,1.398,1.399    C34.473,40.778,33.845,41.407,33.073,41.407z M33.073,39.106c-0.497,0-0.9,0.403-0.9,0.899c0,0.497,0.404,0.901,0.9,0.901    c0.495,0,0.898-0.404,0.898-0.901C33.973,39.51,33.568,39.106,33.073,39.106z" fill="red"/>
		<path d="M24.024,32.437c-0.772,0-1.4-0.629-1.4-1.401c0-0.771,0.628-1.399,1.4-1.399s1.4,0.628,1.4,1.399    C25.425,31.808,24.796,32.437,24.024,32.437z M24.024,30.136c-0.497,0-0.9,0.403-0.9,0.899s0.404,0.901,0.9,0.901    s0.9-0.405,0.9-0.901C24.925,30.54,24.521,30.136,24.024,30.136z" fill="red"/>
		<path d="M20.225,36.883c-0.113,0-0.215-0.077-0.243-0.191c-1.389-5.775-9.477-5.154-9.559-5.147    c-0.147,0.007-0.258-0.091-0.271-0.229c-0.012-0.138,0.09-0.259,0.228-0.271c0.086-0.008,2.16-0.176,4.448,0.404    c3.071,0.78,5.021,2.553,5.64,5.125c0.032,0.133-0.05,0.27-0.185,0.301C20.264,36.88,20.244,36.883,20.225,36.883z" fill="red"/>
		<path d="M28.35,36.883c-0.019,0-0.039-0.002-0.059-0.008c-0.134-0.031-0.217-0.166-0.186-0.301    c0.619-2.572,2.57-4.345,5.642-5.125c2.288-0.58,4.361-0.412,4.447-0.404c0.138,0.012,0.239,0.133,0.229,0.271    c-0.012,0.138-0.119,0.236-0.271,0.229c-0.08-0.005-8.169-0.628-9.56,5.147C28.564,36.806,28.463,36.883,28.35,36.883z" fill="red"/>
	</g>
	<g>
	</g>
	<g>
	</g>
	<g>
	</g>
	<g>
	</g>
	<g>
	</g>
	<g>
	</g>
	<g>
	</g>
	<g>
	</g>
	<g>
	</g>
	<g>
	</g>
	<g>
	</g>
	<g>
	</g>
	<g>
	</g>
	<g>
	</g>
	<g>
	</g>
</g>
<g>
</g>
<g>
</g>
<g>
</g>
<g>
</g>
<g>
</g>
<g>
</g>
<g>
</g>
<g>
</g>
<g>
</g>
<g>
</g>
<g>
</g>
<g>
</g>
<g>
</g>
<g>
</g>
<g>
</g>
</svg>
